<!DOCTYPE svg PUBLIC "-//W3C//DTD SVG 1.1//EN" "http://www.w3.org/Graphics/SVG/1.1/DTD/svg11.dtd">
<!-- Uploaded to: SVG Repo, www.svgrepo.com, Transformed by: SVG Repo Mixer Tools -->
<svg width="800px" height="800px" viewBox="-6.5 -0.016 100.001 100.001" xmlns="http://www.w3.org/2000/svg" fill="#d291e5" stroke="#d291e5">
<g id="SVGRepo_bgCarrier" stroke-width="0"/>
<g id="SVGRepo_tracerCarrier" stroke-linecap="round" stroke-linejoin="round" stroke="#000" stroke-width="9.800098">
<path fill="#d291e5d291e508B059" d="M49.997 47.153l12.778-12.779C39.436 20.552 4.949.274 3-.016L2.844 0l47.153 47.153z"/>
<path fill="#d291e5d291e5" d="M.016 2.829L0 2.984v94l.015.149 47.153-47.152L.016 2.829z"/>
<path fill="#d291e5d291e5F04F3E" d="M50.003 52.816L2.852 99.968l.148.017c1.958-.312 36.439-20.58 59.775-34.396L50.003 52.816z"/>
<path fill="#d291e5d291e5F99C1C" d="M84 46.984s-7.372-4.398-17.665-10.5L52.832 49.988l13.497 13.497C76.625 57.382 84 52.984 84 52.984c1.607-.844 3-1.343 3-3 0-1.656-1.584-2.225-3-3z"/>
</g>
<g id="SVGRepo_iconCarrier">
<path fill="#d291e5d291e508B059" d="M49.997 47.153l12.778-12.779C39.436 20.552 4.949.274 3-.016L2.844 0l47.153 47.153z"/>
<path fill="#d291e5d291e5" d="M.016 2.829L0 2.984v94l.015.149 47.153-47.152L.016 2.829z"/>
<path fill="#d291e5d291e5F04F3E" d="M50.003 52.816L2.852 99.968l.148.017c1.958-.312 36.439-20.58 59.775-34.396L50.003 52.816z"/>
<path fill="#d291e5d291e5F99C1C" d="M84 46.984s-7.372-4.398-17.665-10.5L52.832 49.988l13.497 13.497C76.625 57.382 84 52.984 84 52.984c1.607-.844 3-1.343 3-3 0-1.656-1.584-2.225-3-3z"/>
</g>
</svg>