<!DOCTYPE svg PUBLIC "-//W3C//DTD SVG 1.1//EN" "http://www.w3.org/Graphics/SVG/1.1/DTD/svg11.dtd">
<!-- Uploaded to: SVG Repo, www.svgrepo.com, Transformed by: SVG Repo Mixer Tools -->
<svg fill="#d291e5" height="800px" width="800px" version="1.1" id="Layer_1" xmlns="http://www.w3.org/2000/svg" xmlns:xlink="http://www.w3.org/1999/xlink" viewBox="0 0 511.999 511.999" xml:space="preserve">
<g id="SVGRepo_bgCarrier" stroke-width="0"/>
<g id="SVGRepo_tracerCarrier" stroke-linecap="round" stroke-linejoin="round" stroke="#000" stroke-width="16.383968000000003"> <g> <g> <path d="M495.099,97.776H156.758c-11.809,0-19.978,11.84-15.789,22.878l66.318,174.783c2.488,6.559,8.773,10.897,15.789,10.897 c7.209,0,203.777,0,205.704,0c7.015,0,13.3-4.338,15.789-10.897l66.318-174.783C515.077,109.613,506.905,97.776,495.099,97.776z M181.229,131.55h39.878l6.175,25.519h-36.37L181.229,131.55z M214.648,219.627l-10.922-28.783h31.727l6.964,28.783H214.648z M234.73,272.558l-7.268-19.157h23.127l4.635,19.157H234.73z M255.854,131.55h53.186v25.519h-47.011L255.854,131.55z M309.041,272.558h-19.069l-4.635-19.157h23.704V272.558z M309.041,219.627h-31.875l-6.964-28.783h38.84V219.627z M361.542,272.558h-18.726v-19.157h23.361L361.542,272.558z M374.349,219.627h-31.533v-28.783h38.497L374.349,219.627z M389.485,157.069h-46.67V131.55h0.001h52.844L389.485,157.069z M417.126,272.558H396.29l4.635-19.157h23.469L417.126,272.558z M437.211,219.627h-28.112l6.964-28.783h32.069L437.211,219.627z M460.946,157.069h-36.712l6.175-25.519h40.221L460.946,157.069z"/> </g> </g> <g> <g> <path d="M451.901,338.016H188.297L90.471,80.194c-2.488-6.559-8.773-10.897-15.789-10.897H16.887C7.561,69.297,0,76.858,0,86.184 c0,9.326,7.561,16.887,16.887,16.887h46.14l97.826,257.822c2.488,6.559,8.773,10.897,15.789,10.897h27.16 c-2.944,6.368-4.6,13.447-4.6,20.911c0,27.57,22.43,50,50,50c27.57,0,50-22.43,50-50c0-7.463-1.655-14.543-4.6-20.911h44.464 c-2.944,6.368-4.6,13.447-4.6,20.911c0,27.57,22.43,50,50,50c27.57,0,50-22.43,50-50c0-7.463-1.655-14.543-4.6-20.911H451.9 c9.326,0,16.887-7.561,16.887-16.887S461.229,338.016,451.901,338.016z M249.203,408.926c-8.947,0-16.225-7.278-16.225-16.225 s7.278-16.225,16.225-16.225s16.225,7.278,16.225,16.225S258.15,408.926,249.203,408.926z M384.468,408.926 c-8.947,0-16.225-7.278-16.225-16.225s7.278-16.225,16.225-16.225s16.225,7.278,16.225,16.225S393.414,408.926,384.468,408.926z"/> </g> </g> </g>
<g id="SVGRepo_iconCarrier"> <g> <g> <path d="M495.099,97.776H156.758c-11.809,0-19.978,11.84-15.789,22.878l66.318,174.783c2.488,6.559,8.773,10.897,15.789,10.897 c7.209,0,203.777,0,205.704,0c7.015,0,13.3-4.338,15.789-10.897l66.318-174.783C515.077,109.613,506.905,97.776,495.099,97.776z M181.229,131.55h39.878l6.175,25.519h-36.37L181.229,131.55z M214.648,219.627l-10.922-28.783h31.727l6.964,28.783H214.648z M234.73,272.558l-7.268-19.157h23.127l4.635,19.157H234.73z M255.854,131.55h53.186v25.519h-47.011L255.854,131.55z M309.041,272.558h-19.069l-4.635-19.157h23.704V272.558z M309.041,219.627h-31.875l-6.964-28.783h38.84V219.627z M361.542,272.558h-18.726v-19.157h23.361L361.542,272.558z M374.349,219.627h-31.533v-28.783h38.497L374.349,219.627z M389.485,157.069h-46.67V131.55h0.001h52.844L389.485,157.069z M417.126,272.558H396.29l4.635-19.157h23.469L417.126,272.558z M437.211,219.627h-28.112l6.964-28.783h32.069L437.211,219.627z M460.946,157.069h-36.712l6.175-25.519h40.221L460.946,157.069z"/> </g> </g> <g> <g> <path d="M451.901,338.016H188.297L90.471,80.194c-2.488-6.559-8.773-10.897-15.789-10.897H16.887C7.561,69.297,0,76.858,0,86.184 c0,9.326,7.561,16.887,16.887,16.887h46.14l97.826,257.822c2.488,6.559,8.773,10.897,15.789,10.897h27.16 c-2.944,6.368-4.6,13.447-4.6,20.911c0,27.57,22.43,50,50,50c27.57,0,50-22.43,50-50c0-7.463-1.655-14.543-4.6-20.911h44.464 c-2.944,6.368-4.6,13.447-4.6,20.911c0,27.57,22.43,50,50,50c27.57,0,50-22.43,50-50c0-7.463-1.655-14.543-4.6-20.911H451.9 c9.326,0,16.887-7.561,16.887-16.887S461.229,338.016,451.901,338.016z M249.203,408.926c-8.947,0-16.225-7.278-16.225-16.225 s7.278-16.225,16.225-16.225s16.225,7.278,16.225,16.225S258.15,408.926,249.203,408.926z M384.468,408.926 c-8.947,0-16.225-7.278-16.225-16.225s7.278-16.225,16.225-16.225s16.225,7.278,16.225,16.225S393.414,408.926,384.468,408.926z"/> </g> </g> </g>
</svg>