<!DOCTYPE svg PUBLIC "-//W3C//DTD SVG 1.1//EN" "http://www.w3.org/Graphics/SVG/1.1/DTD/svg11.dtd">
<!-- Uploaded to: SVG Repo, www.svgrepo.com, Transformed by: SVG Repo Mixer Tools -->
<svg fill="#d291e5" width="800px" height="800px" viewBox="0 0 16 16" xmlns="http://www.w3.org/2000/svg">
<g id="SVGRepo_bgCarrier" stroke-width="0"/>
<g id="SVGRepo_tracerCarrier" stroke-linecap="round" stroke-linejoin="round" stroke="#000" stroke-width="1.568"> <path d="M0 14h16v2H0v-2zm8.5-8l4-4H11V0h5v5h-2V3.5L9.5 8l-1 1-2-2-5 5L0 10.5 6.5 4 8 5.5l.5.5z" fill-rule="evenodd"/> </g>
<g id="SVGRepo_iconCarrier"> <path d="M0 14h16v2H0v-2zm8.5-8l4-4H11V0h5v5h-2V3.5L9.5 8l-1 1-2-2-5 5L0 10.5 6.5 4 8 5.5l.5.5z" fill-rule="evenodd"/> </g>
</svg>